<?xml version="1.0" encoding="UTF-8"?>
<svg xmlns="http://www.w3.org/2000/svg" xmlns:xlink="http://www.w3.org/1999/xlink" viewBox="0 0 60 60" width="60px" height="60px">
<g id="surface14197610">
<path style=" stroke:none;fill-rule:nonzero;fill:rgb(96.078432%,96.078432%,96.078432%);fill-opacity:1;" d="M 42.5 7.5 L 17.5 7.5 C 11.976562 7.5 7.5 11.976562 7.5 17.5 L 7.5 42.5 C 7.5 48.023438 11.976562 52.5 17.5 52.5 L 31.550781 52.5 L 31.550781 35.097656 L 25.695312 35.097656 L 25.695312 28.285156 L 31.550781 28.285156 L 31.550781 23.273438 C 31.550781 17.460938 35.105469 14.296875 40.289062 14.296875 C 42.039062 14.289062 43.78125 14.378906 45.519531 14.558594 L 45.519531 20.632812 L 41.949219 20.632812 C 39.125 20.632812 38.574219 21.96875 38.574219 23.9375 L 38.574219 28.273438 L 45.324219 28.273438 L 44.449219 35.085938 L 38.535156 35.085938 L 38.535156 52.5 L 42.5 52.5 C 48.023438 52.5 52.5 48.023438 52.5 42.5 L 52.5 17.5 C 52.5 11.976562 48.023438 7.5 42.5 7.5 Z M 42.5 7.5 "/>
</g>
</svg>
