<?xml version="1.0" encoding="UTF-8"?>
<svg xmlns="http://www.w3.org/2000/svg" xmlns:xlink="http://www.w3.org/1999/xlink" viewBox="0 0 30 30" width="30px" height="30px">
<g id="surface15594660">
<path style=" stroke:none;fill-rule:nonzero;fill:rgb(96.078432%,96.078432%,96.078432%);fill-opacity:1;" d="M 6 3 C 5.449219 3 5 3.449219 5 4 C 5 4 5 4.003906 5 4.003906 L 5 25.996094 C 5 25.996094 5 26 5 26 C 5 26.550781 5.449219 27 6 27 C 6.207031 27 6.410156 26.933594 6.578125 26.8125 L 6.582031 26.8125 L 26.417969 15.90625 C 26.769531 15.746094 27 15.390625 27 15 C 27 14.597656 26.757812 14.234375 26.386719 14.078125 L 6.582031 3.183594 L 6.578125 3.183594 C 6.410156 3.066406 6.207031 3 6 3 Z M 6 3 "/>
</g>
</svg>
