<?xml version="1.0" encoding="UTF-8"?>
<svg xmlns="http://www.w3.org/2000/svg" xmlns:xlink="http://www.w3.org/1999/xlink" viewBox="0 0 48 48" width="48px" height="48px">
<g id="surface16322118">
<path style=" stroke:none;fill-rule:nonzero;fill:rgb(96.078432%,96.078432%,96.078432%);fill-opacity:1;" d="M 17 8 C 16.703125 8 16.425781 8.128906 16.234375 8.355469 L 2.613281 22.558594 C 2.609375 22.5625 2.609375 22.5625 2.605469 22.566406 L 2.542969 22.632812 C 2.195312 23.003906 2 23.492188 2 24 C 2 24.507812 2.195312 24.996094 2.542969 25.367188 C 2.5625 25.386719 2.578125 25.402344 2.597656 25.421875 L 16.273438 39.6875 C 16.28125 39.695312 16.285156 39.699219 16.292969 39.707031 C 16.480469 39.894531 16.734375 40 17 40 C 17.550781 40 18 39.550781 18 39 L 18 30 L 40 30 C 42.210938 30 44 28.210938 44 26 L 44 22 C 44 19.789062 42.210938 18 40 18 L 18 18 L 18 9 C 18 8.449219 17.550781 8 17 8 Z M 17 8 "/>
</g>
</svg>
